<?xml version="1.0" encoding="UTF-8" standalone="no"?>
<!DOCTYPE svg PUBLIC "-//W3C//DTD SVG 1.1//EN"
 "http://www.w3.org/Graphics/SVG/1.1/DTD/svg11.dtd">
<!-- Generated by graphviz version 2.43.0 (0)
 -->
<!-- Title: %3 Pages: 1 -->
<svg width="275pt" height="288pt"
 viewBox="0.00 0.00 274.86 288.00" xmlns="http://www.w3.org/2000/svg" xmlns:xlink="http://www.w3.org/1999/xlink">
<g id="graph0" class="graph" transform="scale(1.53 1.53) rotate(0) translate(4 436.86)">
<title>%3</title>
<polygon fill="white" stroke="transparent" points="-4,4 -4,-436.86 416.75,-436.86 416.75,4 -4,4"/>
<!-- 0 -->
<g id="node1" class="node">
<title>0</title>
<ellipse fill="#e41a1c" stroke="#e41a1c" cx="401.75" cy="-89.47" rx="11" ry="11"/>
</g>
<!-- 1 -->
<g id="node2" class="node">
<title>1</title>
<ellipse fill="#377eb8" stroke="#377eb8" cx="271.5" cy="-79.48" rx="11" ry="11"/>
</g>
<!-- 0&#45;&#45;1 -->
<g id="edge1" class="edge">
<title>0&#45;&#45;1</title>
<path fill="none" stroke="black" d="M390.64,-88.61C366.03,-86.73 307.16,-82.21 282.58,-80.33"/>
</g>
<!-- 6 -->
<g id="node3" class="node">
<title>6</title>
<ellipse fill="#377eb8" stroke="#377eb8" cx="401.75" cy="-343.39" rx="11" ry="11"/>
</g>
<!-- 0&#45;&#45;6 -->
<g id="edge2" class="edge">
<title>0&#45;&#45;6</title>
<path fill="none" stroke="black" d="M401.75,-100.7C401.75,-142.74 401.75,-290.46 401.75,-332.28"/>
</g>
<!-- 7 -->
<g id="node4" class="node">
<title>7</title>
<ellipse fill="#4daf4a" stroke="#4daf4a" cx="160.25" cy="-11" rx="11" ry="11"/>
</g>
<!-- 0&#45;&#45;7 -->
<g id="edge3" class="edge">
<title>0&#45;&#45;7</title>
<path fill="none" stroke="black" d="M391.06,-85.99C351.08,-73 210.59,-27.36 170.82,-14.43"/>
</g>
<!-- 1&#45;&#45;7 -->
<g id="edge4" class="edge">
<title>1&#45;&#45;7</title>
<path fill="none" stroke="black" d="M262.01,-73.64C241,-60.7 190.71,-29.75 169.71,-16.82"/>
</g>
<!-- 2 -->
<g id="node5" class="node">
<title>2</title>
<ellipse fill="#4daf4a" stroke="#4daf4a" cx="249.25" cy="-147.95" rx="11" ry="11"/>
</g>
<!-- 1&#45;&#45;2 -->
<g id="edge5" class="edge">
<title>1&#45;&#45;2</title>
<path fill="none" stroke="black" d="M268.02,-90.18C263.87,-102.96 256.95,-124.25 252.77,-137.1"/>
</g>
<!-- 10 -->
<g id="node6" class="node">
<title>10</title>
<ellipse fill="#e41a1c" stroke="#e41a1c" cx="160.25" cy="-421.86" rx="11" ry="11"/>
</g>
<!-- 6&#45;&#45;10 -->
<g id="edge6" class="edge">
<title>6&#45;&#45;10</title>
<path fill="none" stroke="black" d="M391.06,-346.86C351.08,-359.85 210.59,-405.5 170.82,-418.42"/>
</g>
<!-- 11 -->
<g id="node7" class="node">
<title>11</title>
<ellipse fill="#377eb8" stroke="#377eb8" cx="11" cy="-216.43" rx="11" ry="11"/>
</g>
<!-- 7&#45;&#45;11 -->
<g id="edge7" class="edge">
<title>7&#45;&#45;11</title>
<path fill="none" stroke="black" d="M153.65,-20.09C128.94,-54.1 42.11,-173.61 17.53,-207.44"/>
</g>
<!-- 3 -->
<g id="node8" class="node">
<title>3</title>
<ellipse fill="#e41a1c" stroke="#e41a1c" cx="227" cy="-216.43" rx="11" ry="11"/>
</g>
<!-- 2&#45;&#45;3 -->
<g id="edge8" class="edge">
<title>2&#45;&#45;3</title>
<path fill="none" stroke="black" d="M245.77,-158.65C241.62,-171.44 234.7,-192.72 230.53,-205.58"/>
</g>
<!-- 8 -->
<g id="node9" class="node">
<title>8</title>
<ellipse fill="#e41a1c" stroke="#e41a1c" cx="83" cy="-216.43" rx="11" ry="11"/>
</g>
<!-- 2&#45;&#45;8 -->
<g id="edge9" class="edge">
<title>2&#45;&#45;8</title>
<path fill="none" stroke="black" d="M238.85,-152.24C208.99,-164.53 123.25,-199.85 93.4,-212.15"/>
</g>
<!-- 10&#45;&#45;11 -->
<g id="edge18" class="edge">
<title>10&#45;&#45;11</title>
<path fill="none" stroke="black" d="M153.65,-412.76C128.94,-378.75 42.11,-259.25 17.53,-225.42"/>
</g>
<!-- 4 -->
<g id="node10" class="node">
<title>4</title>
<ellipse fill="#377eb8" stroke="#377eb8" cx="249.25" cy="-284.9" rx="11" ry="11"/>
</g>
<!-- 3&#45;&#45;4 -->
<g id="edge10" class="edge">
<title>3&#45;&#45;4</title>
<path fill="none" stroke="black" d="M230.48,-227.13C234.63,-239.92 241.55,-261.2 245.72,-274.05"/>
</g>
<!-- 9 -->
<g id="node11" class="node">
<title>9</title>
<ellipse fill="#4daf4a" stroke="#4daf4a" cx="155" cy="-216.43" rx="11" ry="11"/>
</g>
<!-- 3&#45;&#45;9 -->
<g id="edge11" class="edge">
<title>3&#45;&#45;9</title>
<path fill="none" stroke="black" d="M215.75,-216.43C202.3,-216.43 179.93,-216.43 166.41,-216.43"/>
</g>
<!-- 8&#45;&#45;11 -->
<g id="edge13" class="edge">
<title>8&#45;&#45;11</title>
<path fill="none" stroke="black" d="M71.75,-216.43C58.3,-216.43 35.93,-216.43 22.41,-216.43"/>
</g>
<!-- 8&#45;&#45;9 -->
<g id="edge12" class="edge">
<title>8&#45;&#45;9</title>
<path fill="none" stroke="black" d="M94.25,-216.43C107.7,-216.43 130.07,-216.43 143.59,-216.43"/>
</g>
<!-- 4&#45;&#45;9 -->
<g id="edge14" class="edge">
<title>4&#45;&#45;9</title>
<path fill="none" stroke="black" d="M240.21,-278.34C222.24,-265.28 182.21,-236.2 164.15,-223.07"/>
</g>
<!-- 5 -->
<g id="node12" class="node">
<title>5</title>
<ellipse fill="#4daf4a" stroke="#4daf4a" cx="271.5" cy="-353.38" rx="11" ry="11"/>
</g>
<!-- 4&#45;&#45;5 -->
<g id="edge15" class="edge">
<title>4&#45;&#45;5</title>
<path fill="none" stroke="black" d="M252.73,-295.6C256.88,-308.39 263.8,-329.67 267.97,-342.53"/>
</g>
<!-- 5&#45;&#45;6 -->
<g id="edge16" class="edge">
<title>5&#45;&#45;6</title>
<path fill="none" stroke="black" d="M282.6,-352.53C307.21,-350.64 366.09,-346.12 390.67,-344.24"/>
</g>
<!-- 5&#45;&#45;10 -->
<g id="edge17" class="edge">
<title>5&#45;&#45;10</title>
<path fill="none" stroke="black" d="M262.01,-359.22C241,-372.16 190.71,-403.11 169.71,-416.03"/>
</g>
</g>
</svg>
